<?xml version="1.0" encoding="UTF-8"?>
<svg id="Layer_2" data-name="Layer 2" xmlns="http://www.w3.org/2000/svg" viewBox="0 0 107.62 107.62">
  <defs>
    <style>
      .cls-1 {
        fill: #f50;
      }

      .cls-2 {
        fill: #fff;
      }
    </style>
  </defs>
  <g id="Layer_1-2" data-name="Layer 1">
    <rect x="0" y="0" width="107.62" height="107.62" rx="53.81" ry="53.81"/>
    <path class="cls-2" d="M64.45,77.58h14.66l-10.45-15.23c2.96-1.39,5.26-3.32,6.89-5.79,1.73-2.63,2.59-5.81,2.59-9.54,0-5.53-1.89-9.89-5.67-13.07-3.78-3.18-9.22-4.77-16.32-4.77h-21.58v48.42h13.69v-12.86h7.41l8.78,12.86ZM62.23,41.86c1.43,1.27,2.14,2.99,2.14,5.15s-.72,4.01-2.14,5.26c-1.43,1.25-3.57,1.87-6.43,1.87h-7.54v-14.18h7.54c2.86,0,5,.63,6.43,1.9Z"/>
    <circle class="cls-1" cx="83.95" cy="63.51" r="7.69"/>
  </g>
</svg>
